REM DIRINDEX 1\2,1\3,1\4,1\5
REM DIRNAME cjc155,folder01,folder02,folder03,folder04
TITLE ""
FILE "CD1Track06.mp3" MP3
  TRACK 01 AUDIO
    TITLE "5:cjc155_0464"
    INDEX 01 00:00:00
  TRACK 02 AUDIO
    TITLE "0:"
    INDEX 01 00:01:30
  TRACK 03 AUDIO
    TITLE "2:cjc155_0465"
    INDEX 01 00:02:34
  TRACK 04 AUDIO
    TITLE "3:cjc155_0466"
    INDEX 01 00:03:57
  TRACK 05 AUDIO
    TITLE "2:cjc155_0467"
    INDEX 01 00:05:14
  TRACK 06 AUDIO
    TITLE "3:cjc155_0468"
    INDEX 01 00:07:13
  TRACK 07 AUDIO
    TITLE "2:cjc155_0469"
    INDEX 01 00:09:20
  TRACK 08 AUDIO
    TITLE "3:cjc155_0470"
    INDEX 01 00:11:31
  TRACK 09 AUDIO
    TITLE "2:cjc155_0471"
    INDEX 01 00:13:47
  TRACK 10 AUDIO
    TITLE "3:cjc155_0472"
    INDEX 01 00:15:01
  TRACK 11 AUDIO
    TITLE "2:cjc155_0473"
    INDEX 01 00:16:38
  TRACK 12 AUDIO
    TITLE "3:cjc155_0474"
    INDEX 01 00:18:17
  TRACK 13 AUDIO
    TITLE "2:cjc155_0475"
    INDEX 01 00:20:02
  TRACK 14 AUDIO
    TITLE "3:cjc155_0476"
    INDEX 01 00:21:57
  TRACK 15 AUDIO
    TITLE "2:cjc155_0477"
    INDEX 01 00:23:46
  TRACK 16 AUDIO
    TITLE "3:cjc155_0478"
    INDEX 01 00:24:71
  TRACK 17 AUDIO
    TITLE "2:cjc155_0479"
    INDEX 01 00:26:30
  TRACK 18 AUDIO
    TITLE "3:cjc155_0480"
    INDEX 01 00:27:51
  TRACK 19 AUDIO
    TITLE "2:cjc155_0481"
    INDEX 01 00:29:03
  TRACK 20 AUDIO
    TITLE "3:cjc155_0482"
    INDEX 01 00:30:38
  TRACK 21 AUDIO
    TITLE "2:cjc155_0483"
    INDEX 01 00:32:07
  TRACK 22 AUDIO
    TITLE "3:cjc155_0484"
    INDEX 01 00:33:40
  TRACK 23 AUDIO
    TITLE "2:cjc155_0485"
    INDEX 01 00:35:04
  TRACK 24 AUDIO
    TITLE "3:cjc155_0486"
    INDEX 01 00:37:30
  TRACK 25 AUDIO
    TITLE "2:cjc155_0487"
    INDEX 01 00:39:62
  TRACK 26 AUDIO
    TITLE "3:cjc155_0488"
    INDEX 01 00:41:55
  TRACK 27 AUDIO
    TITLE "2:cjc155_0489"
    INDEX 01 00:43:60
  TRACK 28 AUDIO
    TITLE "3:cjc155_0490"
    INDEX 01 00:46:09
  TRACK 29 AUDIO
    TITLE "2:cjc155_0491"
    INDEX 01 00:48:40
  TRACK 30 AUDIO
    TITLE "3:cjc155_0492"
    INDEX 01 00:50:19
  TRACK 31 AUDIO
    TITLE "2:cjc155_0493"
    INDEX 01 00:51:73
  TRACK 32 AUDIO
    TITLE "3:cjc155_0494"
    INDEX 01 00:53:39
  TRACK 33 AUDIO
    TITLE "2:cjc155_0495"
    INDEX 01 00:55:18
  TRACK 34 AUDIO
    TITLE "3:cjc155_0496"
    INDEX 01 00:57:17
  TRACK 35 AUDIO
    TITLE "2:cjc155_0497"
    INDEX 01 00:59:26
  TRACK 36 AUDIO
    TITLE "3:cjc155_0498"
    INDEX 01 01:01:19
  TRACK 37 AUDIO
    TITLE "2:cjc155_0499"
    INDEX 01 01:03:20
  TRACK 38 AUDIO
    TITLE "3:cjc155_0500"
    INDEX 01 01:04:37
  TRACK 39 AUDIO
    TITLE "2:cjc155_0501"
    INDEX 01 01:05:62
  TRACK 40 AUDIO
    TITLE "3:cjc155_0502"
    INDEX 01 01:07:39
  TRACK 41 AUDIO
    TITLE "2:cjc155_0503"
    INDEX 01 01:09:22
  TRACK 42 AUDIO
    TITLE "3:cjc155_0504"
    INDEX 01 01:12:32
  TRACK 43 AUDIO
    TITLE "2:cjc155_0505"
    INDEX 01 01:15:50
  TRACK 44 AUDIO
    TITLE "3:cjc155_0506"
    INDEX 01 01:17:45
  TRACK 45 AUDIO
    TITLE "2:cjc155_0507"
    INDEX 01 01:19:50
  TRACK 46 AUDIO
    TITLE "3:cjc155_0508"
    INDEX 01 01:20:63
  TRACK 47 AUDIO
    TITLE "2:cjc155_0509"
    INDEX 01 01:22:13
  TRACK 48 AUDIO
    TITLE "3:cjc155_0510"
    INDEX 01 01:23:52
  TRACK 49 AUDIO
    TITLE "2:cjc155_0511"
    INDEX 01 01:25:21
  TRACK 50 AUDIO
    TITLE "3:cjc155_0512"
    INDEX 01 01:27:26
  TRACK 51 AUDIO
    TITLE "2:cjc155_0513"
    INDEX 01 01:29:39
  TRACK 52 AUDIO
    TITLE "3:cjc155_0514"
    INDEX 01 01:30:67
  TRACK 53 AUDIO
    TITLE "2:cjc155_0515"
    INDEX 01 01:32:31
  TRACK 54 AUDIO
    TITLE "3:cjc155_0516"
    INDEX 01 01:34:38
  TRACK 55 AUDIO
    TITLE "2:cjc155_0517"
    INDEX 01 01:36:52
  TRACK 56 AUDIO
    TITLE "3:cjc155_0518"
    INDEX 01 01:37:54
  TRACK 57 AUDIO
    TITLE "2:cjc155_0519"
    INDEX 01 01:38:67
  TRACK 58 AUDIO
    TITLE "3:cjc155_0520"
    INDEX 01 01:40:74
  TRACK 59 AUDIO
    TITLE "2:cjc155_0521"
    INDEX 01 01:43:17
  TRACK 60 AUDIO
    TITLE "3:cjc155_0522"
    INDEX 01 01:44:73
  TRACK 61 AUDIO
    TITLE "2:cjc155_0523"
    INDEX 01 01:46:61
  TRACK 62 AUDIO
    TITLE "3:cjc155_0524"
    INDEX 01 01:49:08
  TRACK 63 AUDIO
    TITLE "2:cjc155_0525"
    INDEX 01 01:51:40
  TRACK 64 AUDIO
    TITLE "3:cjc155_0526"
    INDEX 01 01:53:49
  TRACK 65 AUDIO
    TITLE "2:cjc155_0527"
    INDEX 01 01:55:67
  TRACK 66 AUDIO
    TITLE "3:cjc155_0528"
    INDEX 01 01:57:19
  TRACK 67 AUDIO
    TITLE "2:cjc155_0529"
    INDEX 01 01:58:56
  TRACK 68 AUDIO
    TITLE "3:cjc155_0530"
    INDEX 01 02:00:71
  TRACK 69 AUDIO
    TITLE "2:cjc155_0531"
    INDEX 01 02:03:16
  TRACK 70 AUDIO
    TITLE "3:cjc155_0532"
    INDEX 01 02:04:47
  TRACK 71 AUDIO
    TITLE "2:cjc155_0533"
    INDEX 01 02:06:10
  TRACK 72 AUDIO
    TITLE "3:cjc155_0534"
    INDEX 01 02:08:21
  TRACK 73 AUDIO
    TITLE "2:cjc155_0535"
    INDEX 01 02:10:42
  TRACK 74 AUDIO
    TITLE "3:cjc155_0536"
    INDEX 01 02:12:68
  TRACK 75 AUDIO
    TITLE "2:cjc155_0537"
    INDEX 01 02:15:29
  TRACK 76 AUDIO
    TITLE "3:cjc155_0538"
    INDEX 01 02:17:14
  TRACK 77 AUDIO
    TITLE "2:cjc155_0539"
    INDEX 01 02:19:13
  TRACK 78 AUDIO
    TITLE "3:cjc155_0540"
    INDEX 01 02:20:22
  TRACK 79 AUDIO
    TITLE "2:cjc155_0541"
    INDEX 01 02:21:33
  TRACK 80 AUDIO
    TITLE "3:cjc155_0542"
    INDEX 01 02:23:27
  TRACK 81 AUDIO
    TITLE "2:cjc155_0543"
    INDEX 01 02:25:25
  TRACK 82 AUDIO
    TITLE "3:cjc155_0544"
    INDEX 01 02:26:48
  TRACK 83 AUDIO
    TITLE "2:cjc155_0545"
    INDEX 01 02:28:08
  TRACK 84 AUDIO
    TITLE "3:cjc155_0546"
    INDEX 01 02:30:56
  TRACK 85 AUDIO
    TITLE "2:cjc155_0547"
    INDEX 01 02:33:37
  TRACK 86 AUDIO
    TITLE "3:cjc155_0548"
    INDEX 01 02:35:26
  TRACK 87 AUDIO
    TITLE "2:cjc155_0549"
    INDEX 01 02:37:15
  TRACK 88 AUDIO
    TITLE "3:cjc155_0550"
    INDEX 01 02:38:69
  TRACK 89 AUDIO
    TITLE "2:cjc155_0551"
    INDEX 01 02:40:56
  TRACK 90 AUDIO
    TITLE "3:cjc155_0552"
    INDEX 01 02:42:51
  TRACK 91 AUDIO
    TITLE "2:cjc155_0553"
    INDEX 01 02:44:54
  TRACK 92 AUDIO
    TITLE "3:cjc155_0554"
    INDEX 01 02:46:00
  TRACK 93 AUDIO
    TITLE "2:cjc155_0555"
    INDEX 01 02:47:27
  TRACK 94 AUDIO
    TITLE "3:cjc155_0556"
    INDEX 01 02:48:42
  TRACK 95 AUDIO
    TITLE "2:cjc155_0557"
    INDEX 01 02:49:61
  TRACK 96 AUDIO
    TITLE "3:cjc155_0558"
    INDEX 01 02:51:46
  TRACK 97 AUDIO
    TITLE "2:cjc155_0559"
    INDEX 01 02:53:35
  TRACK 98 AUDIO
    TITLE "3:cjc155_0560"
    INDEX 01 02:55:27
  TRACK 99 AUDIO
    TITLE "2:cjc155_0561"
    INDEX 01 02:57:27
  TRACK 100 AUDIO
    TITLE "3:cjc155_0562"
    INDEX 01 02:58:58
  TRACK 101 AUDIO
    TITLE "2:cjc155_0563"
    INDEX 01 03:00:24
  TRACK 102 AUDIO
    TITLE "3:cjc155_0564"
    INDEX 01 03:01:60
  TRACK 103 AUDIO
    TITLE "2:cjc155_0565"
    INDEX 01 03:03:30
  TRACK 104 AUDIO
    TITLE "3:cjc155_0566"
    INDEX 01 03:05:70
  TRACK 105 AUDIO
    TITLE "2:cjc155_0567"
    INDEX 01 03:08:47
  TRACK 106 AUDIO
    TITLE "3:cjc155_0568"
    INDEX 01 03:11:12
  TRACK 107 AUDIO
    TITLE "2:cjc155_0569"
    INDEX 01 03:13:56
  TRACK 108 AUDIO
    TITLE "3:cjc155_0570"
    INDEX 01 03:14:73
  TRACK 109 AUDIO
    TITLE "2:cjc155_0571"
    INDEX 01 03:16:27
  TRACK 110 AUDIO
    TITLE "3:cjc155_0572"
    INDEX 01 03:17:26
  TRACK 111 AUDIO
    TITLE "2:cjc155_0573"
    INDEX 01 03:18:30
  TRACK 112 AUDIO
    TITLE "3:cjc155_0574"
    INDEX 01 03:19:52
  TRACK 113 AUDIO
    TITLE "2:cjc155_0575"
    INDEX 01 03:21:12
  TRACK 114 AUDIO
    TITLE "3:cjc155_0576"
    INDEX 01 03:22:74
  TRACK 115 AUDIO
    TITLE "2:cjc155_0577"
    INDEX 01 03:24:73
  TRACK 116 AUDIO
    TITLE "3:cjc155_0578"
    INDEX 01 03:26:23
  TRACK 117 AUDIO
    TITLE "2:cjc155_0579"
    INDEX 01 03:27:60
  TRACK 118 AUDIO
    TITLE "3:cjc155_0580"
    INDEX 01 03:29:37
  TRACK 119 AUDIO
    TITLE "2:cjc155_0581"
    INDEX 01 03:31:18
  TRACK 120 AUDIO
    TITLE "3:cjc155_0582"
    INDEX 01 03:32:43
  TRACK 121 AUDIO
    TITLE "2:cjc155_0583"
    INDEX 01 03:33:72
  TRACK 122 AUDIO
    TITLE "3:cjc155_0584"
    INDEX 01 03:36:02
  TRACK 123 AUDIO
    TITLE "2:cjc155_0585"
    INDEX 01 03:38:17
  TRACK 124 AUDIO
    TITLE "3:cjc155_0586"
    INDEX 01 03:39:39
  TRACK 125 AUDIO
    TITLE "2:cjc155_0587"
    INDEX 01 03:40:66
  TRACK 126 AUDIO
    TITLE "3:cjc155_0588"
    INDEX 01 03:42:01
  TRACK 127 AUDIO
    TITLE "2:cjc155_0589"
    INDEX 01 03:43:10
  TRACK 128 AUDIO
    TITLE "3:cjc155_0590"
    INDEX 01 03:45:09
  TRACK 129 AUDIO
    TITLE "2:cjc155_0591"
    INDEX 01 03:47:15
  TRACK 130 AUDIO
    TITLE "3:cjc155_0592"
    INDEX 01 03:49:30
  TRACK 131 AUDIO
    TITLE "2:cjc155_0593"
    INDEX 01 03:51:54
  TRACK 132 AUDIO
    TITLE "3:cjc155_0594"
    INDEX 01 03:52:62
  TRACK 133 AUDIO
    TITLE "2:cjc155_0595"
    INDEX 01 03:54:04
  TRACK 134 AUDIO
    TITLE "3:cjc155_0596"
    INDEX 01 03:56:40
  TRACK 135 AUDIO
    TITLE "2:cjc155_0597"
    INDEX 01 03:59:09
  TRACK 136 AUDIO
    TITLE "3:cjc155_0598"
    INDEX 01 04:00:48
  TRACK 137 AUDIO
    TITLE "2:cjc155_0599"
    INDEX 01 04:02:21
  TRACK 138 AUDIO
    TITLE "3:cjc155_0600"
    INDEX 01 04:04:59
  TRACK 139 AUDIO
    TITLE "2:cjc155_0601"
    INDEX 01 04:07:32
  TRACK 140 AUDIO
    TITLE "3:cjc155_0602"
    INDEX 01 04:09:15
  TRACK 141 AUDIO
    TITLE "2:cjc155_0603"
    INDEX 01 04:11:10
  TRACK 142 AUDIO
    TITLE "3:cjc155_0604"
    INDEX 01 04:13:33
  TRACK 143 AUDIO
    TITLE "2:cjc155_0605"
    INDEX 01 04:15:71
  TRACK 144 AUDIO
    TITLE "3:cjc155_0606"
    INDEX 01 04:17:66
  TRACK 145 AUDIO
    TITLE "2:cjc155_0607"
    INDEX 01 04:19:70
  TRACK 146 AUDIO
    TITLE "3:cjc155_0608"
    INDEX 01 04:21:22
  TRACK 147 AUDIO
    TITLE "2:cjc155_0609"
    INDEX 01 04:22:53
  TRACK 148 AUDIO
    TITLE "3:cjc155_0610"
    INDEX 01 04:24:26
  TRACK 149 AUDIO
    TITLE "2:cjc155_0611"
    INDEX 01 04:26:12
  TRACK 150 AUDIO
    TITLE "3:cjc155_0612"
    INDEX 01 04:27:33
  TRACK 151 AUDIO
    TITLE "2:cjc155_0613"
    INDEX 01 04:28:65
  TRACK 152 AUDIO
    TITLE "3:cjc155_0614"
    INDEX 01 04:30:25
  TRACK 153 AUDIO
    TITLE "2:cjc155_0615"
    INDEX 01 04:31:68
  TRACK 154 AUDIO
    TITLE "3:cjc155_0616"
    INDEX 01 04:34:17
  TRACK 155 AUDIO
    TITLE "2:cjc155_0617"
    INDEX 01 04:36:47
  TRACK 156 AUDIO
    TITLE "3:cjc155_0618"
    INDEX 01 04:37:72
  TRACK 157 AUDIO
    TITLE "2:cjc155_0619"
    INDEX 01 04:39:26
  TRACK 158 AUDIO
    TITLE "3:cjc155_0620"
    INDEX 01 04:41:64
  TRACK 159 AUDIO
    TITLE "2:cjc155_0621"
    INDEX 01 04:44:31
  TRACK 160 AUDIO
    TITLE "3:cjc155_0622"
    INDEX 01 04:45:36
  TRACK 161 AUDIO
    TITLE "2:cjc155_0623"
    INDEX 01 04:46:50
  TRACK 162 AUDIO
    TITLE "3:cjc155_0624"
    INDEX 01 04:48:23
  TRACK 163 AUDIO
    TITLE "2:cjc155_0625"
    INDEX 01 04:50:00
  TRACK 164 AUDIO
    TITLE "3:cjc155_0626"
    INDEX 01 04:51:43
  TRACK 165 AUDIO
    TITLE "2:cjc155_0627"
    INDEX 01 04:53:22
  TRACK 166 AUDIO
    TITLE "3:cjc155_0628"
    INDEX 01 04:55:17
  TRACK 167 AUDIO
    TITLE "2:cjc155_0629"
    INDEX 01 04:57:26
  TRACK 168 AUDIO
    TITLE "3:cjc155_0630"
    INDEX 01 04:58:53
  TRACK 169 AUDIO
    TITLE "2:cjc155_0631"
    INDEX 01 05:00:14
  TRACK 170 AUDIO
    TITLE "3:cjc155_0632"
    INDEX 01 05:02:23
  TRACK 171 AUDIO
    TITLE "2:cjc155_0633"
    INDEX 01 05:04:38
  TRACK 172 AUDIO
    TITLE "3:cjc155_0634"
    INDEX 01 05:06:62
  TRACK 173 AUDIO
    TITLE "2:cjc155_0635"
    INDEX 01 05:09:21
  TRACK 174 AUDIO
    TITLE "3:cjc155_0636"
    INDEX 01 05:11:10
  TRACK 175 AUDIO
    TITLE "2:cjc155_0637"
    INDEX 01 05:13:03
  TRACK 176 AUDIO
    TITLE "3:cjc155_0638"
    INDEX 01 05:15:12
  TRACK 177 AUDIO
    TITLE "2:cjc155_0639"
    INDEX 01 05:17:29
  TRACK 178 AUDIO
    TITLE "3:cjc155_0640"
    INDEX 01 05:19:29
  TRACK 179 AUDIO
    TITLE "2:cjc155_0641"
    INDEX 01 05:21:38
  TRACK 180 AUDIO
    TITLE "3:cjc155_0642"
    INDEX 01 05:23:10
  TRACK 181 AUDIO
    TITLE "2:cjc155_0643"
    INDEX 01 05:24:60
  TRACK 182 AUDIO
    TITLE "3:cjc155_0644"
    INDEX 01 05:26:29
  TRACK 183 AUDIO
    TITLE "2:cjc155_0645"
    INDEX 01 05:28:07
  TRACK 184 AUDIO
    TITLE "3:cjc155_0646"
    INDEX 01 05:30:02
  TRACK 185 AUDIO
    TITLE "2:cjc155_0647"
    INDEX 01 05:32:05
  TRACK 186 AUDIO
    TITLE "3:cjc155_0648"
    INDEX 01 05:34:27
  TRACK 187 AUDIO
    TITLE "2:cjc155_0649"
    INDEX 01 05:36:63
  TRACK 188 AUDIO
    TITLE "3:cjc155_0650"
    INDEX 01 05:38:09
  TRACK 189 AUDIO
    TITLE "2:cjc155_0651"
    INDEX 01 05:39:42
  TRACK 190 AUDIO
    TITLE "3:cjc155_0652"
    INDEX 01 05:42:17
  TRACK 191 AUDIO
    TITLE "2:cjc155_0653"
    INDEX 01 05:45:03
  TRACK 192 AUDIO
    TITLE "3:cjc155_0654"
    INDEX 01 05:46:48
  TRACK 193 AUDIO
    TITLE "2:cjc155_0655"
    INDEX 01 05:48:27
  TRACK 194 AUDIO
    TITLE "3:cjc155_0656"
    INDEX 01 05:50:55
  TRACK 195 AUDIO
    TITLE "2:cjc155_0657"
    INDEX 01 05:53:21
  TRACK 196 AUDIO
    TITLE "3:cjc155_0658"
    INDEX 01 05:54:16
  TRACK 197 AUDIO
    TITLE "2:cjc155_0659"
    INDEX 01 05:55:19
  TRACK 198 AUDIO
    TITLE "3:cjc155_0660"
    INDEX 01 05:57:16
  TRACK 199 AUDIO
    TITLE "2:cjc155_0661"
    INDEX 01 05:59:25
  TRACK 200 AUDIO
    TITLE "3:cjc155_0662"
    INDEX 01 06:01:42
  TRACK 201 AUDIO
    TITLE "2:cjc155_0663"
    INDEX 01 06:03:54
  TRACK 202 AUDIO
    TITLE "3:cjc155_0664"
    INDEX 01 06:06:31
  TRACK 203 AUDIO
    TITLE "2:cjc155_0665"
    INDEX 01 06:09:08
  TRACK 204 AUDIO
    TITLE "3:cjc155_0666"
    INDEX 01 06:10:48
  TRACK 205 AUDIO
    TITLE "2:cjc155_0667"
    INDEX 01 06:12:18
  TRACK 206 AUDIO
    TITLE "3:cjc155_0668"
    INDEX 01 06:13:55
  TRACK 207 AUDIO
    TITLE "2:cjc155_0669"
    INDEX 01 06:15:18
  TRACK 208 AUDIO
    TITLE "3:cjc155_0670"
    INDEX 01 06:16:71
  TRACK 209 AUDIO
    TITLE "2:cjc155_0671"
    INDEX 01 06:18:50
  TRACK 210 AUDIO
    TITLE "3:cjc155_0672"
    INDEX 01 06:20:35
  TRACK 211 AUDIO
    TITLE "2:cjc155_0673"
    INDEX 01 06:22:26
  TRACK 212 AUDIO
    TITLE "3:cjc155_0674"
    INDEX 01 06:24:07
  TRACK 213 AUDIO
    TITLE "2:cjc155_0675"
    INDEX 01 06:25:69
  TRACK 214 AUDIO
    TITLE "3:cjc155_0676"
    INDEX 01 06:27:10
  TRACK 215 AUDIO
    TITLE "2:cjc155_0677"
    INDEX 01 06:28:33
  TRACK 216 AUDIO
    TITLE "3:cjc155_0678"
    INDEX 01 06:29:26
  TRACK 217 AUDIO
    TITLE "2:cjc155_0679"
    INDEX 01 06:30:28
  TRACK 218 AUDIO
    TITLE "3:cjc155_0680"
    INDEX 01 06:31:45
  TRACK 219 AUDIO
    TITLE "2:cjc155_0681"
    INDEX 01 06:32:70
  TRACK 220 AUDIO
    TITLE "3:cjc155_0682"
    INDEX 01 06:33:67
  TRACK 221 AUDIO
    TITLE "2:cjc155_0683"
    INDEX 01 06:34:70
  TRACK 222 AUDIO
    TITLE "3:cjc155_0684"
    INDEX 01 06:36:50
  TRACK 223 AUDIO
    TITLE "2:cjc155_0685"
    INDEX 01 06:38:25
  TRACK 224 AUDIO
    TITLE "3:cjc155_0686"
    INDEX 01 06:40:42
  TRACK 225 AUDIO
    TITLE "2:cjc155_0687"
    INDEX 01 06:42:66
  TRACK 226 AUDIO
    TITLE "3:cjc155_0688"
    INDEX 01 06:44:20
  TRACK 227 AUDIO
    TITLE "2:cjc155_0689"
    INDEX 01 06:45:58
  TRACK 228 AUDIO
    TITLE "3:cjc155_0690"
    INDEX 01 06:47:42
  TRACK 229 AUDIO
    TITLE "2:cjc155_0691"
    INDEX 01 06:49:31
  TRACK 230 AUDIO
    TITLE "3:cjc155_0692"
    INDEX 01 06:51:04
  TRACK 231 AUDIO
    TITLE "2:cjc155_0693"
    INDEX 01 06:52:62
  TRACK 232 AUDIO
    TITLE "3:cjc155_0694"
    INDEX 01 06:54:18
  TRACK 233 AUDIO
    TITLE "2:cjc155_0695"
    INDEX 01 06:55:55
  TRACK 234 AUDIO
    TITLE "3:cjc155_0696"
    INDEX 01 06:57:34
  TRACK 235 AUDIO
    TITLE "2:cjc155_0697"
    INDEX 01 06:59:33
  TRACK 236 AUDIO
    TITLE "3:cjc155_0698"
    INDEX 01 07:01:73
  TRACK 237 AUDIO
    TITLE "2:cjc155_0699"
    INDEX 01 07:04:48
  TRACK 238 AUDIO
    TITLE "3:cjc155_0700"
    INDEX 01 07:06:68
  TRACK 239 AUDIO
    TITLE "2:cjc155_0701"
    INDEX 01 07:09:22
  TRACK 240 AUDIO
    TITLE "3:cjc155_0702"
    INDEX 01 07:10:47
  TRACK 241 AUDIO
    TITLE "2:cjc155_0703"
    INDEX 01 07:12:04
  TRACK 242 AUDIO
    TITLE "3:cjc155_0704"
    INDEX 01 07:13:49
  TRACK 243 AUDIO
    TITLE "2:cjc155_0705"
    INDEX 01 07:15:28
  TRACK 244 AUDIO
    TITLE "3:cjc155_0706"
    INDEX 01 07:17:27
  TRACK 245 AUDIO
    TITLE "2:cjc155_0707"
    INDEX 01 07:19:30
  TRACK 246 AUDIO
    TITLE "3:cjc155_0708"
    INDEX 01 07:20:71
  TRACK 247 AUDIO
    TITLE "2:cjc155_0709"
    INDEX 01 07:22:42
  TRACK 248 AUDIO
    TITLE "3:cjc155_0710"
    INDEX 01 07:23:69
  TRACK 249 AUDIO
    TITLE "2:cjc155_0711"
    INDEX 01 07:25:31
  TRACK 250 AUDIO
    TITLE "3:cjc155_0712"
    INDEX 01 07:27:04
  TRACK 251 AUDIO
    TITLE "2:cjc155_0713"
    INDEX 01 07:28:66
  TRACK 252 AUDIO
    TITLE "3:cjc155_0714"
    INDEX 01 07:30:36
  TRACK 253 AUDIO
    TITLE "2:cjc155_0715"
    INDEX 01 07:32:01
  TRACK 254 AUDIO
    TITLE "3:cjc155_0716"
    INDEX 01 07:34:12
  TRACK 255 AUDIO
    TITLE "2:cjc155_0717"
    INDEX 01 07:36:32
  TRACK 256 AUDIO
    TITLE "3:cjc155_0718"
    INDEX 01 07:38:18
  TRACK 257 AUDIO
    TITLE "2:cjc155_0719"
    INDEX 01 07:40:11
  TRACK 258 AUDIO
    TITLE "3:cjc155_0720"
    INDEX 01 07:41:22
  TRACK 259 AUDIO
    TITLE "2:cjc155_0721"
    INDEX 01 07:42:47
  TRACK 260 AUDIO
    TITLE "3:cjc155_0722"
    INDEX 01 07:44:06
  TRACK 261 AUDIO
    TITLE "2:cjc155_0723"
    INDEX 01 07:45:57
  TRACK 262 AUDIO
    TITLE "3:cjc155_0724"
    INDEX 01 07:47:20
  TRACK 263 AUDIO
    TITLE "2:cjc155_0725"
    INDEX 01 07:48:69
  TRACK 264 AUDIO
    TITLE "3:cjc155_0726"
    INDEX 01 07:51:08
  TRACK 265 AUDIO
    TITLE "2:cjc155_0727"
    INDEX 01 07:53:29
  TRACK 266 AUDIO
    TITLE "3:cjc155_0728"
    INDEX 01 07:56:23
  TRACK 267 AUDIO
    TITLE "2:cjc155_0729"
    INDEX 01 07:59:29
  TRACK 268 AUDIO
    TITLE "3:cjc155_0730"
    INDEX 01 08:01:40
  TRACK 269 AUDIO
    TITLE "2:cjc155_0731"
    INDEX 01 08:03:61
  TRACK 270 AUDIO
    TITLE "3:cjc155_0732"
    INDEX 01 08:05:71
  TRACK 271 AUDIO
    TITLE "2:cjc155_0733"
    INDEX 01 08:08:11
  TRACK 272 AUDIO
    TITLE "3:cjc155_0734"
    INDEX 01 08:10:18
  TRACK 273 AUDIO
    TITLE "2:cjc155_0735"
    INDEX 01 08:12:24
  TRACK 274 AUDIO
    TITLE "3:cjc155_0736"
    INDEX 01 08:13:59
  TRACK 275 AUDIO
    TITLE "2:cjc155_0737"
    INDEX 01 08:15:27
  TRACK 276 AUDIO
    TITLE "3:cjc155_0738"
    INDEX 01 08:17:35
  TRACK 277 AUDIO
    TITLE "2:cjc155_0739"
    INDEX 01 08:19:58
  TRACK 278 AUDIO
    TITLE "3:cjc155_0740"
    INDEX 01 08:21:00
  TRACK 279 AUDIO
    TITLE "2:cjc155_0741"
    INDEX 01 08:22:21
  TRACK 280 AUDIO
    TITLE "3:cjc155_0742"
    INDEX 01 08:23:65
  TRACK 281 AUDIO
    TITLE "2:cjc155_0743"
    INDEX 01 08:25:37
  TRACK 282 AUDIO
    TITLE "3:cjc155_0744"
    INDEX 01 08:27:57
  TRACK 283 AUDIO
    TITLE "2:cjc155_0745"
    INDEX 01 08:30:12
  TRACK 284 AUDIO
    TITLE "3:cjc155_0746"
    INDEX 01 08:31:47
  TRACK 285 AUDIO
    TITLE "2:cjc155_0747"
    INDEX 01 08:33:15
  TRACK 286 AUDIO
    TITLE "3:cjc155_0748"
    INDEX 01 08:35:43
  TRACK 287 AUDIO
    TITLE "2:cjc155_0749"
    INDEX 01 08:38:10
  TRACK 288 AUDIO
    TITLE "3:cjc155_0750"
    INDEX 01 08:39:62
  TRACK 289 AUDIO
    TITLE "2:cjc155_0751"
    INDEX 01 08:41:47
  TRACK 290 AUDIO
    TITLE "3:cjc155_0752"
    INDEX 01 08:42:45
  TRACK 291 AUDIO
    TITLE "0:"
    INDEX 01 08:43:44
